<svg width="32" height="32" viewBox="0 0 32 32" fill="none" xmlns="http://www.w3.org/2000/svg">
  <circle cx="16" cy="16" r="16" fill="#4285F4"/>
  <circle cx="16" cy="16" r="12" fill="white"/>
  <circle cx="16" cy="16" r="8" fill="#4285F4"/>
  <path d="M16 4C21.5228 4 26.4183 7.05369 28.4641 11.5H16V16.5L8.26795 27.732C5.48726 25.0326 4 21.2174 4 16C4 9.37258 9.37258 4 16 4Z" fill="#EA4335"/>
  <path d="M28.4641 11.5C29.4183 13.4326 30 15.6522 30 18C30 24.6274 24.6274 30 18 30C15.6522 30 13.4326 29.4183 11.5 28.4641L16 16.5H28.4641V11.5Z" fill="#FBBC05"/>
  <path d="M11.5 28.4641C9.56739 27.5098 7.34783 26.9281 5 26.9281C2.65217 26.9281 0.432609 27.5098 -1.5 28.4641L8.26795 27.732L16 16.5L11.5 28.4641Z" fill="#34A853"/>
</svg>