<svg width="32" height="32" viewBox="0 0 32 32" fill="none" xmlns="http://www.w3.org/2000/svg">
  <circle cx="16" cy="16" r="16" fill="#FF7139"/>
  <path d="M8 12C8 8 12 4 16 4C20 4 24 8 24 12C24 16 20 20 16 20C12 20 8 16 8 12Z" fill="#FF9500"/>
  <path d="M12 8C12 6 14 4 16 4C18 4 20 6 20 8C20 10 18 12 16 12C14 12 12 10 12 8Z" fill="#FFB000"/>
  <ellipse cx="16" cy="16" rx="8" ry="12" fill="url(#firefox-gradient)"/>
  <defs>
    <linearGradient id="firefox-gradient" x1="16" y1="4" x2="16" y2="28" gradientUnits="userSpaceOnUse">
      <stop stop-color="#FF7139"/>
      <stop offset="1" stop-color="#FF3647"/>
    </linearGradient>
  </defs>
</svg>